<?xml version="1.0" encoding="utf-8"?>
<!DOCTYPE svg PUBLIC "-//W3C//DTD SVG 20010904//EN" "http://www.w3.org/TR/2001/REC-SVG-20010904/DTD/svg10.dtd">
<svg version="1.0" xmlns="http://www.w3.org/2000/svg" width="337px" height="269px" viewBox="0 0 337 269" preserveAspectRatio="xMidYMid meet">
 <g fill="#ffffff">
  <path d="M0 134.5 l0 -134.5 168.5 0 168.5 0 0 134.5 0 134.5 -168.5 0 -168.5 0 0 -134.5z"/>
 </g>
 <g fill="#242729">
  <path d="M62.5 223 c-12.1 -4.9 -23.6 -9.4 -25.5 -10.2 -1.9 -0.7 -5.3 -2.2 -7.5 -3.3 l-4 -2 -0.3 -72.4 c-0.1 -40.7 0.2 -72.9 0.7 -73.4 0.7 -0.7 20.5 6.6 52.4 19.6 l7.7 3.1 0 73.2 c0 40.3 -0.3 73.5 -0.7 73.7 -0.5 0.3 -10.7 -3.5 -22.8 -8.3z"/>
  <path d="M225 229.8 c-5.1 -2.1 -7 -2.9 -29.5 -12.3 -12.6 -5.3 -23.5 -10.1 -24.2 -10.7 -1 -0.8 -1.3 -16 -1.3 -73.4 0 -39.8 0.4 -72.5 0.9 -72.8 0.4 -0.3 11.4 4 24.2 9.5 12.9 5.5 26.2 11.2 29.7 12.7 l6.2 2.6 0 72.8 c0 68.7 -0.1 72.8 -1.7 72.7 -1 0 -2.9 -0.5 -4.3 -1.1z"/>
  <path d="M99 52.5 c0 -10.2 0.2 -18.5 0.5 -18.5 0.4 0 39.7 14 45 16 1.9 0.7 1.8 0.9 -0.8 1.9 -1.5 0.6 -4.7 2 -7.2 3.1 -2.4 1.1 -8.1 3.5 -12.7 5.4 -13.6 5.5 -21.2 8.9 -22.2 9.8 -0.6 0.4 -1.4 0.8 -1.8 0.8 -0.4 0 -0.8 -8.3 -0.8 -18.5z"/>
  <path d="M242.7 70.3 c-0.9 -0.8 -0.9 -36.7 -0.1 -37.6 0.6 -0.6 5.7 1.2 30.9 11.1 8.3 3.2 15.9 6.2 17 6.6 2.7 1 3.2 0.7 -23.6 11.5 -24.1 9.7 -23.2 9.4 -24.2 8.4z"/>
 </g>
 <g fill="#58c5c2">
  <path d="M98.2 158.3 l0.3 -73.7 28.5 -12.3 c15.7 -6.8 29 -12.5 29.7 -12.8 1 -0.3 1.3 14.5 1.3 73.8 l0 74.2 -8.3 3.4 c-7.9 3.2 -23.8 9.9 -41.6 17.5 -4.7 2 -8.8 3.6 -9.3 3.6 -0.4 0 -0.7 -33.2 -0.6 -73.7z"/>
  <path d="M242.9 231.6 c-0.2 -0.2 -0.2 -33.4 0.1 -73.7 l0.5 -73.3 9.5 -3.9 c38.1 -15.5 49.1 -19.8 50 -19.2 1.6 1 1.4 142.7 -0.2 144.7 -1.1 1.3 -18.2 8.9 -49.6 21.9 -10.2 4.3 -9.7 4.1 -10.3 3.5z"/>
  <path d="M218 66.8 c-6.3 -2.7 -14.6 -6.2 -18.5 -7.8 -3.8 -1.5 -9.7 -4 -13 -5.5 l-6 -2.7 3.5 -1.3 c1.9 -0.8 12.9 -5 24.4 -9.4 11.5 -4.4 21.3 -7.8 21.8 -7.5 1 0.6 1.1 36.4 0 38.1 -0.5 0.8 -4.1 -0.4 -12.2 -3.9z"/>
  <path d="M60.8 61.7 c-12.6 -5.1 -22.7 -9.6 -22.5 -10.1 0.3 -0.8 45 -17.6 46.9 -17.6 0.4 0 0.8 8.3 0.8 18.5 0 14.2 -0.3 18.5 -1.2 18.4 -0.7 -0.1 -11.5 -4.2 -24 -9.2z"/>
 </g>
</svg>