<?xml version="1.0" encoding="utf-8"?>
<!DOCTYPE svg PUBLIC "-//W3C//DTD SVG 20010904//EN" "http://www.w3.org/TR/2001/REC-SVG-20010904/DTD/svg10.dtd">
<svg version="1.0" xmlns="http://www.w3.org/2000/svg" width="50px" height="50px" viewBox="0 0 225 225" preserveAspectRatio="xMidYMid meet">

 <g fill="#97d6d7">
  <path d="M142.5 222.2 c-2.7 -1.5 -5.1 -3.4 -5.3 -4.3 -0.2 -0.9 3.1 -8.7 7.2 -17.3 6.1 -12.8 7.8 -15.6 9.6 -15.6 2.8 0 14 5.7 14.7 7.6 0.3 0.8 -2.8 8.4 -6.8 16.9 l-7.4 15.5 -3.5 0 c-1.9 0 -5.7 -1.3 -8.5 -2.8z"/>
  <path d="M51.8 179 c-3.7 -1.9 -5.8 -3.7 -5.8 -4.8 -0.1 -3.1 14.1 -32 16 -32.5 2.3 -0.6 13.6 4.7 14.9 7 0.8 1.6 -0.4 4.9 -6.3 17.4 -8.4 17.9 -8.8 18.1 -18.8 12.9z"/>
  <path d="M111.5 173.7 c-4.6 -2.5 -6.1 -3.8 -6.2 -5.7 -0.2 -1.5 4.2 -11.8 11 -26 9.2 -19.1 11.7 -23.6 13.5 -23.8 3.2 -0.5 14 4.7 14.8 7 0.4 1.4 -3 9.5 -10.7 25.7 -6.1 13 -11.6 24.2 -12.2 24.9 -1.5 1.9 -3.7 1.4 -10.2 -2.1z"/>
  <path d="M178.5 149.7 c-3.3 -1.8 -6.1 -4 -6.3 -4.9 -0.3 -1.5 18.9 -43.2 22.4 -48.5 1.9 -3 3.6 -2.9 11.2 0.7 5 2.4 6.2 3.4 6.2 5.3 0 2.3 -20.6 46.3 -23.1 49.3 -1.7 2.1 -3.7 1.7 -10.4 -1.9z"/>
  <path d="M19.9 130 c-3.1 -1.6 -5.9 -3.6 -6.3 -4.5 -0.8 -2.2 22.2 -50.3 24.4 -51 2.3 -0.7 14.5 4.9 15.4 7.1 0.4 1.1 -3.1 9.6 -10.5 25.3 -6.2 13 -11.6 24.2 -12.2 24.9 -1.5 1.9 -4.7 1.4 -10.8 -1.8z"/>
  <path d="M86.8 106 c-4.5 -2.3 -5.8 -3.5 -5.8 -5.3 0.1 -2.9 22.1 -48.7 24 -49.9 2.3 -1.5 15.4 5 15.8 7.7 0.1 1.1 -4.9 12.8 -11.2 26 -13.2 27.5 -12.5 26.8 -22.8 21.5z"/>
  <path d="M155.2 82.7 c-3.4 -1.7 -6.5 -3.9 -6.8 -5 -0.3 -1.1 2.1 -7.3 6.2 -16 7.9 -16.6 8 -16.7 10.6 -16.7 3.4 0 13.7 5.1 14.3 7.1 0.7 2.2 -12.6 30.7 -15.2 32.7 -2.1 1.5 -1.7 1.6 -9.1 -2.1z"/>
  <path d="M63.5 38.7 c-3.3 -1.7 -6.1 -4 -6.3 -4.9 -0.4 -2.1 13.2 -30.9 15.1 -32.2 1.9 -1.2 14.5 4.2 15.9 6.7 1.4 2.6 -13.8 33.1 -16.7 33.4 -1.1 0.2 -4.7 -1.2 -8 -3z"/>
 </g>
 <g fill="#f1564a">
  <path d="M98.3 201.3 c-27.6 -13.2 -26.5 -12 -21.5 -22.3 2.1 -4.3 3.3 -5.5 5.2 -5.7 1.5 -0.1 12.3 4.4 26 11 21.2 10.2 23.5 11.6 23.8 13.9 0.4 3.6 -5.3 14.8 -7.6 14.8 -0.9 0 -12.6 -5.3 -25.9 -11.7z"/>
  <path d="M157.2 173.5 c-8.3 -4 -15.5 -8.1 -15.8 -8.9 -0.3 -0.9 0.6 -4.5 2.1 -8.1 2.1 -4.8 3.4 -6.7 5.1 -7.1 1.7 -0.4 6.6 1.4 16.6 6.2 16.6 7.9 16.8 8 16.8 10.6 0 4.3 -7.1 15.6 -9.3 14.7 -0.1 0 -7.1 -3.3 -15.5 -7.4z"/>
  <path d="M15.7 162.1 c-7.7 -3.7 -14.3 -7.5 -14.9 -8.5 -0.8 -1.3 -0.2 -3.3 2.4 -8.4 2.6 -5.4 3.8 -6.7 5.8 -6.9 1.4 -0.1 8.8 3 17 7 11.3 5.6 14.6 7.7 14.8 9.4 0.2 1.2 -1.1 4.9 -2.8 8.2 -2.6 5.3 -3.4 6.1 -5.8 6 -1.5 0 -8.9 -3.1 -16.5 -6.8z"/>
  <path d="M76.5 135 c-27.4 -13 -26.5 -12.5 -26.5 -15 0 -2.9 5.6 -13.6 7.5 -14.3 1.9 -0.8 50.2 22 51 24.1 1 2.7 -6.1 16.2 -8.5 16.2 -0.3 0 -10.8 -5 -23.5 -11z"/>
  <path d="M142.1 110.3 c-13.4 -6.5 -24.5 -12.3 -24.8 -13 -0.8 -1.9 4.8 -14.3 6.8 -15.4 2.8 -1.4 51.3 21.8 51.7 24.8 0.6 4 -6.3 15.5 -9.1 15.3 -0.1 0 -11.2 -5.3 -24.6 -11.7z"/>
  <path d="M199.8 81.9 c-8.1 -4 -14.9 -7.8 -15.2 -8.6 -0.3 -0.7 0.9 -4.4 2.7 -8.1 2.3 -4.8 3.8 -6.8 5.4 -7 1.2 -0.2 8.8 2.8 17 6.7 17.1 8 17.4 8.4 12.5 18.1 -2.1 4.3 -3.3 5.6 -5.2 5.7 -1.4 0.2 -8.8 -2.8 -17.2 -6.8z"/>
  <path d="M59 70.7 c-11.3 -5.6 -14.6 -7.7 -14.8 -9.4 -0.4 -2.6 5.1 -13.8 7.2 -14.6 2 -0.8 32.4 13.7 33.2 15.8 0.4 0.9 -0.9 4.6 -2.7 8.3 -2.7 5.4 -3.9 6.7 -5.9 6.9 -1.4 0.1 -8.8 -3 -17 -7z"/>
  <path d="M117.4 42.6 c-12.7 -6.2 -23.4 -12.1 -23.7 -13 -0.8 -2.2 5.2 -14.4 7.4 -15.1 1.6 -0.5 42.7 18.2 48.7 22.1 2.9 1.9 2.8 4.3 -0.8 11.4 -2.6 5.2 -3.4 6 -5.8 5.9 -1.5 0 -13.1 -5.1 -25.8 -11.3z"/>
 </g>
</svg>