<svg xmlns="http://www.w3.org/2000/svg" width="354" height="354" preserveAspectRatio="xMidYMid meet" version="1.0" viewBox="0 0 354 354"><g fill="#38daff"><path d="M151.9 324.5 c-7.6 -1.3 -15.3 -6.2 -18.9 -12 -2.1 -3.4 -2.3 -3.5 -9 -3.5 -3.9 0 -8.4 -0.7 -10.6 -1.6 -5.1 -2.1 -14.4 -8.2 -14.4 -9.5 0 -0.6 -1.1 -2.5 -2.4 -4.2 -1.3 -1.8 -3.2 -5.6 -4.1 -8.5 -3.5 -10.5 -0.2 -21.4 9.1 -30.7 5.5 -5.5 11 -7.9 20.6 -9 5.6 -0.7 5.8 -0.8 6.4 -4.2 1.3 -7 11.4 -16.2 21.3 -19.4 9 -3 22.3 0.3 29.8 7.3 l3.1 3 4.7 -2.7 c7.1 -4.2 16.4 -4.6 24.1 -1.1 8.4 3.9 14 8.9 17.4 15.7 3.6 7 4.8 15.9 3 21.3 -0.9 3 -0.9 4 0.1 5.3 2.1 2.5 4.9 12.3 4.9 17.4 0 10.4 -7.2 22.8 -15.9 27.4 -5.3 2.7 -15.3 4.4 -20.2 3.4 -7.6 -1.4 -11.1 -2.8 -13.5 -5 -1.9 -1.8 -2.6 -2 -3.9 -0.9 -0.8 0.7 -1.5 1.8 -1.5 2.4 0 0.6 -1.8 2.2 -4 3.6 -2.2 1.4 -4 2.8 -4 3.1 0 2.1 -14.4 3.7 -22.1 2.4z"/><path d="M105 235.9 c-6 -6.3 -11.6 -17.2 -13.2 -26 -1.3 -6.9 -0.2 -15.1 3.4 -23.6 l2.2 -5.3 40.6 0 40.7 0 1.1 2.5 c1.8 3.9 4.2 16.4 4.2 21.5 0 4 -0.5 6.9 -2.6 15.9 -0.5 2.2 -0.6 2.2 -2.3 0.7 -3.2 -2.9 -15.1 -6.6 -21.6 -6.6 -7.7 0 -19 3.6 -23.4 7.5 -5.6 4.9 -6.7 6.3 -9.6 12 -2.3 4.7 -3.2 5.5 -5.5 5.5 -1.5 0 -4.1 0.3 -5.8 0.6 -2.6 0.5 -3.6 0 -8.2 -4.7z"/><path d="M223.3 227.9 c-0.6 -0.6 -2.2 -1.7 -3.5 -2.3 l-2.3 -1.2 -0.3 -67.2 -0.2 -67.2 -4 0 -4 0 0 66.1 c0 59.9 -0.1 66.1 -1.6 65.5 -0.9 -0.3 -2.9 -0.6 -4.5 -0.6 l-2.9 0 0 -65.5 0 -65.5 -57 0 -57 0 0 -4.5 0 -4.5 19.1 0 c17.4 0 19.3 -0.2 21.9 -2 1.5 -1.1 3.9 -2.4 5.3 -2.9 1.4 -0.6 4.9 -2.6 7.6 -4.6 2.8 -1.9 5.6 -3.5 6.2 -3.5 0.7 0 2.6 -1.1 4.3 -2.4 1.7 -1.3 5.6 -3.6 8.6 -5.1 3 -1.5 6.9 -3.8 8.6 -5.1 1.7 -1.3 3.6 -2.4 4.2 -2.4 1 0 7.2 -3.7 9.9 -6 0.7 -0.5 1.8 -1 2.6 -1 0.7 0 2.9 -1.2 4.8 -2.6 1.9 -1.4 5.1 -3.4 7.2 -4.5 3.7 -1.9 3.7 -1.9 3.7 -8.4 l0 -6.5 4.5 0 4.5 0 0 6.8 0 6.7 5 2.4 c2.8 1.4 5 2.8 5 3.2 0 0.4 1.5 1.2 3.3 2 1.7 0.7 5.5 2.7 8.3 4.5 2.8 1.7 6 3.5 7.2 3.8 1.2 0.4 2.8 1.3 3.4 2 0.7 0.7 4.5 2.9 8.3 5.1 3.9 2.1 8.1 4.6 9.4 5.6 1.3 1.1 2.8 1.9 3.3 1.9 0.4 0 3.7 1.8 7.2 4 3.5 2.2 6.6 4 7 4 0.4 0 2.4 1.1 4.4 2.5 3.2 2.2 4.7 2.5 12.4 2.5 l8.8 0 0 4.5 0 4.5 -38.2 0.2 -38.3 0.3 -0.5 69.3 c-0.4 52.8 -0.8 69 -1.7 68.1z m-23.3 -163.9 c0 -15.6 -0.6 -19.1 -2.5 -16 -0.4 0.6 -3.4 2.4 -6.8 4.1 -3.4 1.7 -6.9 3.7 -7.7 4.4 -0.8 0.7 -4.6 3 -8.5 5.1 -3.8 2.1 -7.6 4.4 -8.3 5.1 -0.7 0.7 -2 1.3 -2.8 1.3 -0.9 0 -3 1.1 -4.7 2.4 -1.8 1.4 -5.7 3.7 -8.7 5.2 -10.8 5.4 -10.9 5.4 20.9 5.4 l29.1 0 0 -17z m63.8 14.5 c-2 -1.4 -4.4 -2.5 -5.2 -2.5 -0.9 0 -1.6 -0.4 -1.6 -0.8 0 -0.5 -1.5 -1.6 -3.2 -2.6 -1.8 -0.9 -6 -3.2 -9.3 -5.1 -3.3 -1.9 -8.2 -4.6 -11 -6.1 -2.7 -1.4 -5.7 -3.2 -6.5 -3.9 -0.8 -0.7 -4.2 -2.7 -7.5 -4.5 -3.3 -1.8 -6.7 -3.9 -7.6 -4.6 -0.8 -0.8 -1.9 -1.4 -2.2 -1.4 -0.4 0 -0.7 7.7 -0.7 17 l0 17 29.2 0 29.3 0 -3.7 -2.5z"/><path d="M99 164 l0 -12 11.5 0 11.5 0 0 12 0 12 -11.5 0 -11.5 0 0 -12z"/><path d="M126 164 l0 -12 12 0 12 0 0 12 0 12 -12 0 -12 0 0 -12z"/><path d="M153 164 l0 -12 12 0 12 0 0 12 0 12 -12 0 -12 0 0 -12z"/><path d="M99 137 l0 -12 11.5 0 11.5 0 0 12 0 12 -11.5 0 -11.5 0 0 -12z"/><path d="M126 137 l0 -12 12 0 12 0 0 12 0 12 -12 0 -12 0 0 -12z"/><path d="M153 113.5 c0 -21.8 0.1 -22.5 2 -22.5 1.9 0 2 0.7 2 10.5 l0 10.5 8.5 0 8.5 0 0 -10.5 c0 -8.7 0.3 -10.5 1.5 -10.5 1.3 0 1.5 3.2 1.5 22.5 l0 22.5 -12 0 -12 0 0 -22.5z"/></g></svg>